# xmcd CD database file
#
# Track frame offsets:
#	150
#	11503
#	23789
#	38246
#	50967
#	65390
#	78559
#	92075
#	105317
#	120091
#	134482
#	148422
#	162159
#	173875
#	187936
#	207988
#	218983
#	233395
#	245803
#	260145
#	271348
#	286722
#	300816
#	314299
#
# Disc length: 4356 seconds
#
# Revision: 0
# Processed by: cddbd v1.5.2PL0 Copyright (c) Steve Scherf et al.
# Submitted via: CDex 1.70beta2
#
DISCID=4f110218
DTITLE=Various Artist - That Devilin' Tune (A Jazz History) Volume 2 [CD3)
DYEAR=2006
DGENRE=Jazz
TTITLE0=Cliff Edwards - That's My Weakness Now
TTITLE1=Tub Jug Washboard Band - Lady Quit Her Husband...
TTITLE2=Pink Anderson and Simmie Dooley - Tippin' Out
TTITLE3=Chicago Footwarmers - Get 'Em Again Blues
TTITLE4=Tom Dorsey - It's Right Here For You
TTITLE5=Boyd Senter - Stack O'Lee Blues
TTITLE6=Boyd Senter - Somebody's Wrong
TTITLE7=Lottie Kimbrough - Wayward Girl Blues
TTITLE8=Sophie Tucker - 'Cause I Feel Low Down
TTITLE9=Dallas String Band - I Used To Call Her Baby
TTITLE10=Frenchy's String Band - Texas And Pacific Blues
TTITLE11=Bessie Smith and Charlie Green - Empty Bed Blues
TTITLE12=Monk Hazel - Ideas
TTITLE13=Alphonso Trent - Nightmare
TTITLE14=Paul Whiteman - Sweet Sue
TTITLE15=Joe Ward And His Swanee Serenaders - Traffic Jam
TTITLE16=The Sizzlers - Diga Diga Do
TTITLE17=Carrol Dickerson's Savoy Orchestra - Missouri Squabble
TTITLE18=The Dorsey Brothers - Melancholy Baby
TTITLE19=Thelma Terry - Voice Of The Southland
TTITLE20=Benny Meroff - Smiling Skies
TTITLE21=Ted Lewis - Clarinet Marmalade
TTITLE22=Jack Petris - Broadway Stomp
TTITLE23=McKinney's Cotton Pickers - Stop Kidding
EXTD=YEAR: 2006
EXTT0=
EXTT1=
EXTT2=
EXTT3=
EXTT4=
EXTT5=
EXTT6=
EXTT7=
EXTT8=
EXTT9=
EXTT10=
EXTT11=
EXTT12=
EXTT13=
EXTT14=
EXTT15=
EXTT16=
EXTT17=
EXTT18=
EXTT19=
EXTT20=
EXTT21=
EXTT22=
EXTT23=
PLAYORDER=
